<?xml version="1.0" encoding="utf-8"?>
<!-- Generator: Adobe Illustrator 21.1.0, SVG Export Plug-In . SVG Version: 6.00 Build 0)  -->
<svg version="1.1" id="Capa_1" xmlns="http://www.w3.org/2000/svg" xmlns:xlink="http://www.w3.org/1999/xlink" x="0px" y="0px"
	 viewBox="0 0 589 157" style="enable-background:new 0 0 589 157;" xml:space="preserve">
<style type="text/css">
	.st0{fill:#FFFFFF;}
	.st1{fill:#46346B;}
	.st2{fill:#262626;}
</style>
<g>
	<path class="st0" d="M177.5,114.8v-5.4c1,0.2,2.3,0.3,3.3,0.3c3,0,5.1-1.8,5.1-5.9V56.9h6.6v46.8c0,7.8-4.1,11.4-10.8,11.4
		C180.1,115.2,179,115.1,177.5,114.8z M185.4,40h7.5v7.3h-7.5V40z"/>
	<path class="st0" d="M205,79.2V79c0-12.8,9-23,21.2-23c13.1,0,20.6,10.4,20.6,23.4c0,0.9,0,1.4-0.1,2.1h-35.1
		c0.9,9.6,7.7,15,15.6,15c6.1,0,10.4-2.5,14-6.3l4.1,3.7c-4.5,5-9.8,8.3-18.2,8.3C215,102.3,205,92.9,205,79.2z M240.2,76.6
		c-0.7-8.1-5.3-15.1-14.1-15.1c-7.7,0-13.5,6.4-14.4,15.1H240.2z"/>
	<path class="st0" d="M258.5,56.9h6.6v7.7c2.9-4.8,7.5-8.7,15.2-8.7c10.7,0,17,7.2,17,17.7v27.5h-6.6V75.4c0-8.2-4.5-13.4-12.2-13.4
		c-7.6,0-13.3,5.6-13.3,13.9v25.4h-6.6V56.9H258.5z"/>
	<path class="st0" d="M311.2,56.9h6.6v7.7c2.9-4.8,7.5-8.7,15.2-8.7c10.7,0,17,7.2,17,17.7v27.5h-6.6V75.4c0-8.2-4.5-13.4-12.2-13.4
		c-7.6,0-13.3,5.6-13.3,13.9v25.4h-6.6V56.9H311.2z"/>
	<path class="st0" d="M364.1,40h7.5v7.3h-7.5V40z M364.6,56.9h6.6v44.3h-6.6V56.9z"/>
	<path class="st0" d="M389,62.8h-6.1V57h6.1v-3.9c0-5.1,1.4-8.9,3.9-11.4c2.2-2.2,5.5-3.4,9.5-3.4c3.1,0,5.1,0.3,7.3,1.1v5.7
		c-2.4-0.7-4.2-1.1-6.4-1.1c-5.1,0-7.7,3.1-7.7,9.4V57h14v5.7h-14v38.5H389V62.8z"/>
	<path class="st0" d="M414.3,79.2V79c0-12.8,9-23,21.2-23c13.1,0,20.6,10.4,20.6,23.4c0,0.9,0,1.4-0.1,2.1h-35
		c0.9,9.6,7.7,15,15.6,15c6.1,0,10.4-2.5,14-6.3l4.1,3.7c-4.5,5-9.8,8.3-18.2,8.3C424.3,102.3,414.3,92.9,414.3,79.2z M449.5,76.6
		c-0.7-8.1-5.3-15.1-14.1-15.1c-7.7,0-13.5,6.4-14.4,15.1H449.5z"/>
	<path class="st0" d="M467.8,56.9h6.6v11.6c3.3-7.4,9.7-12.7,18.1-12.3v7.1H492c-9.7,0-17.6,6.9-17.6,20.3v17.6h-6.6V56.9z"/>
	<path class="st0" d="M497.2,95.3l5.4-8.3c4.8,3.5,9.9,5.3,14.1,5.3c3.7,0,5.3-1.3,5.3-3.3v-0.2c0-2.7-4.3-3.7-9.2-5.2
		c-6.2-1.8-13.3-4.7-13.3-13.4V70c0-9.1,7.3-14.1,16.3-14.1c5.7,0,11.8,1.9,16.6,5.2l-4.8,8.7c-4.4-2.6-8.8-4.2-12.1-4.2
		c-3.1,0-4.7,1.3-4.7,3.1V69c0,2.5,4.2,3.7,9.1,5.3c6.2,2.1,13.5,5.1,13.5,13.2v0.2c0,9.9-7.4,14.4-17.1,14.4
		C510.1,102.1,503.2,100,497.2,95.3z"/>
	<path class="st0" d="M540.5,79v-0.2c0-14.9,9.7-23,20.3-23c6.7,0,10.9,3.1,13.9,6.7v-22h12.6v60.7h-12.6v-6.4
		c-3.1,4.2-7.3,7.2-13.9,7.2C550.4,102.1,540.5,93.9,540.5,79z M574.9,79v-0.2c0-7.4-4.9-12.3-10.8-12.3c-5.9,0-10.9,4.8-10.9,12.3
		V79c0,7.4,5,12.3,10.9,12.3C570,91.3,574.9,86.4,574.9,79z"/>
</g>
<path class="st1" d="M1,78.2c0,18.1,6.2,34.8,16.7,48c2.2,2.8,5.3,3.8,7.9,6.2c3.6,3.4,8.8,7.4,13,10.1c6.2,4,13,5.1,20.2,7.2
	c5.4,1.6,10,2.5,15.9,2.9c1.5,0.1,5.7-1.4,7.2-1.4c4.5,0,7.3-0.7,11.6-1.4c4.3-0.7,6.1-2.9,10.1-4.3c4.2-1.5,7.7-3.6,11.6-5.8
	c4.2-2.3,7.9-2.7,11.6-5.8c2.5-2.1,6.4-3.4,8.7-5.8c1.6-1.7,2.6-0.6,4-2.5c0.3-0.4,0-0.1,0.3-0.4c0,0-0.2,0.3,0,0
	c0.1-0.1,0.7-0.9,0.7-0.9c9.5-12.9,15.2-28.8,15.2-46C155.5,35.6,120.9,1,78.2,1S1,35.6,1,78.2z"/>
<path id="XMLID_3_" class="st0" d="M79.4,50.2c-3.7,0-6.8,3-6.8,6.8c0,3.7,3,6.8,6.8,6.8c3.7,0,6.8-3,6.8-6.8
	C86.2,53.2,83.1,50.2,79.4,50.2z"/>
<path class="st0" d="M83.7,87.7h-9.6c0,34.1-13.7,49.8-35.7,56.8c11.6,7,25.3,11.1,39.9,11.1c14.5,0,28.2-4,39.8-11
	c0.2-0.1,0.4-0.2,0.5-0.3C97,137.1,83.7,121.3,83.7,87.7z"/>
<ellipse transform="matrix(0.1943 -0.9809 0.9809 0.1943 -81.2324 164.6972)" class="st0" cx="59.6" cy="131.8" rx="15.2" ry="15.2"/>
<path class="st0" d="M43.8,127c-7.2-1.4-14.2,2.5-16.9,8.9c7.5,6.7,16.3,11.9,25.9,15.2c1.4-1.8,2.4-4,2.9-6.4
	C57.3,136.6,52,128.6,43.8,127z"/>
<ellipse transform="matrix(0.9809 -0.1943 0.1943 0.9809 -23.7302 21.6711)" class="st0" cx="98.6" cy="131.8" rx="15.2" ry="15.2"/>
<path class="st0" d="M114.4,127c-8.2,1.6-13.6,9.6-11.9,17.8c0.4,2.2,1.3,4.2,2.6,5.9c9.6-3.6,18.4-9,25.7-15.9
	C127.8,129,121.2,125.7,114.4,127z"/>
<path class="st0" d="M27.9,122.7c-4.1-0.8-8,0.1-11.3,2.2c5.9,7.8,13.3,14.5,21.8,19.6c0.6-1.2,1.1-2.6,1.4-4
	C41.5,132.3,36.1,124.3,27.9,122.7z"/>
<path class="st0" d="M140.4,124.2c-3-1.6-6.5-2.2-10-1.5c-8.2,1.6-13.6,9.6-11.9,17.8c0.2,1.1,0.6,2.1,1,3.1
	C127.5,138.5,134.7,131.9,140.4,124.2z"/>
<path class="st0" d="M89.4,83.1c-1,1.7-3.2,5-3.3,5.1c-0.5,0.5-1.3,0.8-2,0.8H73.2c-0.9,0-1.8-0.5-2.3-1.2c-1-1.4-2-3-3-4.7
	c-3.2,0.8-12.6,1.7-12.6,1.7s0.9-14.3,5.7-19.7c-1.1-5.2-1.3-10.6-0.3-15.8c2.1-9.7,8.7-17,16-24.3c1.1-1.1,2.9-1.1,4,0
	c7,7,13.9,14.6,16,24.3c1.1,5.1,0.8,10.5-0.2,15.8c4.7,5.3,5.7,19.7,5.7,19.7S92.7,84,89.4,83.1z"/>
<polygon class="st0" points="19.8,110.7 18.7,112.8 17.5,110.7 15.4,109.5 17.5,108.4 18.7,106.3 19.8,108.4 21.9,109.5 "/>
<polygon class="st0" points="36.4,71.2 34.1,70.6 31.9,71.2 32.5,68.9 31.9,66.7 34.2,67.3 36.4,66.7 35.8,68.9 "/>
<polygon class="st0" points="42.2,45.4 40.8,42.8 38.2,41.4 40.8,40 42.2,37.4 43.6,40 46.2,41.4 43.6,42.8 "/>
<polygon class="st0" points="52.7,93.8 51.6,95.9 50.4,93.8 48.3,92.7 50.4,91.5 51.6,89.4 52.7,91.5 54.8,92.7 "/>
<polygon class="st0" points="107.5,93.8 106.4,95.9 105.2,93.8 103.1,92.7 105.2,91.5 106.4,89.4 107.5,91.5 109.6,92.7 "/>
<polygon class="st0" points="117.1,42.8 115.7,45.4 114.3,42.8 111.7,41.4 114.3,40 115.7,37.4 117.1,40 119.7,41.4 "/>
<polygon class="st0" points="126.1,71.2 123.8,70.6 121.5,71.2 122.2,68.9 121.5,66.7 123.8,67.3 126.1,66.7 125.4,68.9 "/>
<polygon class="st0" points="132,85.1 136.4,86.4 140.7,85.1 139.4,89.4 140.7,93.8 136.4,92.5 132,93.8 133.3,89.4 "/>
<polygon class="st0" points="140.4,110.7 139.3,112.8 138.1,110.7 136,109.5 138.1,108.4 139.3,106.3 140.4,108.4 142.5,109.5 "/>
<circle class="st2" cx="79" cy="45.8" r="4.3"/>
</svg>
