<?xml version="1.0" encoding="utf-8"?>
<!-- Generator: Adobe Illustrator 21.1.0, SVG Export Plug-In . SVG Version: 6.00 Build 0)  -->
<svg version="1.1" id="Capa_1" xmlns="http://www.w3.org/2000/svg" xmlns:xlink="http://www.w3.org/1999/xlink" x="0px" y="0px"
	 viewBox="0 0 589 157" style="enable-background:new 0 0 589 157;" xml:space="preserve">
<style type="text/css">
	.st0{fill:#49BAD8;}
	.st1{fill:#004863;}
	.st2{fill:#63BB7E;}
	.st3{fill:#FFFFFF;}
	.st4{opacity:0.2;}
</style>
<g>
	<path class="st0" d="M126.8,100.5l-38.5,38.5c-10.5,10.5-27.5,10.5-37.9,0l-38.5-38.5c-4.5-4.5-8.6-10.1-9.3-15.9
		c-0.9,7.9,3.2,16,9.3,22.1l38.5,38.5c10.5,10.5,27.5,10.5,37.9,0l38.5-38.5c6-6,10.2-14.2,9.3-22.1
		C135.4,90.5,131.3,96.1,126.8,100.5z"/>
</g>
<g>
	<path class="st1" d="M167.8,88.3c-2.5,1.5-5,2.3-7.7,2.3c-4.7,0-8.7-2.7-8.7-9.1V65.4h-4.4v-5h4.4v-8.5h6.7v8.5h9.2v5h-9.2v14.9
		c0,3.2,1.2,4.2,3.3,4.2c1.4,0,2.9-0.5,4.7-1.3L167.8,88.3z"/>
	<path class="st1" d="M204.2,70.9v19.4h-6.7V72.8c0-4.7-2.8-7.6-7.5-7.6c-5.6,0.1-8.9,4.2-8.9,9.7v15.3h-6.7V46.9h6.7v18.4
		c2.2-4.4,6.2-6.3,11.5-6.3C199.8,58.9,204.2,63.5,204.2,70.9z"/>
	<path class="st1" d="M240.6,77.3h-23.5c1.1,4.8,4.7,7.8,9.7,7.8c3.4,0,6.5-1.3,8.8-3.6l3.6,3.8c-3,3.3-7.5,5.3-12.9,5.3
		c-9.6,0-15.9-6.4-15.9-15.7c0-9.4,6.5-15.8,15.7-15.9C237,58.9,241.4,66.1,240.6,77.3z M234.7,72.4c-0.2-5-3.6-8.1-8.7-8.1
		c-4.9,0-8.4,3.1-9.1,8.1H234.7z"/>
	<path class="st1" d="M275.7,59.2v28.1c0,9-6.4,14.6-16.2,14.6c-4.9,0-9.1-1.5-12.9-4.1l2.9-4.9c2.9,2.2,6,3.4,9.8,3.4
		c5.9,0,9.8-3.5,9.8-8.8v-3.9c-2.1,3.4-5.6,5.3-10.3,5.3c-8.4,0-14-6.1-14-15c0-8.8,5.6-14.8,13.8-14.8c4.8-0.1,8.4,1.9,10.5,5.3v-5
		H275.7z M269,73.9c0-5.6-3.7-9.5-9-9.5c-5.3,0-9,4-9.1,9.5c0.1,5.6,3.7,9.6,9.1,9.6C265.3,83.5,269,79.5,269,73.9z"/>
	<path class="st1" d="M303.7,90.3v-3.8c-2.2,2.8-5.8,4.1-10.3,4.1c-6.7,0-10.9-4.2-10.9-9.7c0-5.7,4.3-9.3,11.8-9.4h9.4v-0.9
		c0-3.9-2.5-6.3-7.4-6.3c-3,0-6.1,1.1-9.2,3.2l-2.8-4.7c4.3-2.6,7.5-3.9,13.4-3.9c8,0,12.5,4.1,12.6,10.9l0.1,20.4H303.7z
		 M303.7,79.3v-2.9h-8.4c-4.4,0-6.4,1.2-6.4,4.2c0,2.8,2.3,4.6,6,4.6C299.6,85.3,303.3,82.7,303.7,79.3z"/>
	<path class="st1" d="M349,46.9v43.4h-6.7V85c-2.2,3.6-6,5.6-10.9,5.6c-9,0-14.9-6.5-14.9-16c0-9.4,6-15.7,14.8-15.7
		c5,0,8.8,2,11.1,5.7V46.9H349z M342.3,74.8c0-6-3.9-10.2-9.5-10.2s-9.5,4.3-9.6,10.2c0.1,5.9,3.9,10.1,9.6,10.1
		C338.4,85,342.3,80.8,342.3,74.8z"/>
	<path class="st1" d="M387.4,59.2v28.1c0,9-6.4,14.6-16.2,14.6c-4.9,0-9.1-1.5-12.9-4.1l2.9-4.9c2.9,2.2,6,3.4,9.8,3.4
		c5.9,0,9.8-3.5,9.8-8.8v-3.9c-2.1,3.4-5.6,5.3-10.3,5.3c-8.4,0-14-6.1-14-15c0-8.8,5.6-14.8,13.8-14.8c4.8-0.1,8.4,1.9,10.5,5.3v-5
		H387.4z M380.7,73.9c0-5.6-3.7-9.5-9-9.5c-5.3,0-9,4-9.1,9.5c0.1,5.6,3.7,9.6,9.1,9.6C377,83.5,380.7,79.5,380.7,73.9z"/>
	<path class="st1" d="M424.1,77.3h-23.5c1.1,4.8,4.7,7.8,9.7,7.8c3.4,0,6.5-1.3,8.8-3.6l3.6,3.8c-3,3.3-7.5,5.3-12.9,5.3
		c-9.6,0-15.9-6.4-15.9-15.7c0-9.4,6.5-15.8,15.7-15.9C420.5,58.9,424.9,66.1,424.1,77.3z M418.3,72.4c-0.2-5-3.6-8.1-8.7-8.1
		c-4.9,0-8.4,3.1-9.1,8.1H418.3z"/>
	<path class="st1" d="M448.8,88.3c-2.5,1.5-5,2.3-7.7,2.3c-4.7,0-8.7-2.7-8.7-9.1V65.4H428v-5h4.4v-8.5h6.7v8.5h9.2v5h-9.2v14.9
		c0,3.2,1.2,4.2,3.3,4.2c1.4,0,2.9-0.5,4.7-1.3L448.8,88.3z"/>
	<path class="st1" d="M463.8,64.2c-2.6,0-4.6,0.9-4.6,3.1c0,5.7,16.6,2.6,16.5,13.9c0,6.4-5.7,9.2-11.9,9.2c-4.6,0-9.4-1.5-12.5-4.3
		l2.4-4.8c2.7,2.4,7,3.9,10.4,3.9c2.9,0,5.1-1,5.1-3.3c0-6.4-16.4-2.8-16.3-14c0-6.3,5.5-9,11.5-9c3.9,0,8.1,1.2,10.9,3.2l-2.5,5
		C470,65.3,466.5,64.2,463.8,64.2z"/>
	<path class="st1" d="M516.3,74.6c0,9.7-5.7,16-14.5,16c-4,0-7.3-1.6-9.5-4.4v4.1h-10.4V46.9h10.4v15.9c2.2-2.9,5.4-4.4,9.3-4.4
		C510.3,58.3,516.3,64.8,516.3,74.6z M505.8,74.4c0-4.7-2.8-7.9-6.8-7.9c-4,0-6.7,3.2-6.7,7.9s2.8,7.8,6.7,7.8
		C503,82.2,505.8,79.1,505.8,74.4z"/>
	<path class="st1" d="M553.7,74.4c0,9.8-6.9,16.2-17.3,16.2s-17.3-6.4-17.3-16.2c0-9.7,6.8-16.2,17.3-16.2S553.7,64.7,553.7,74.4z
		 M529.5,74.5c0,4.7,2.8,7.9,6.8,7.9c4.1,0,6.8-3.2,6.8-7.9c0-4.7-2.8-7.8-6.8-7.8C532.3,66.7,529.5,69.9,529.5,74.5z"/>
	<path class="st1" d="M566.1,58.6l5.1,8.9l5.5-8.9h11.4l-10,15.5l10.7,16.2h-12l-5.6-9.7l-6.3,9.7h-11.5l10.8-16.2l-10.1-15.5H566.1
		z"/>
</g>
<g>
	<circle class="st2" cx="41.6" cy="55.7" r="7.1"/>
	<circle class="st2" cx="107" cy="68" r="7.1"/>
	<circle class="st2" cx="29.3" cy="83.9" r="7.1"/>
	<circle class="st2" cx="107" cy="92.7" r="7.1"/>
	<path class="st2" d="M126.5,57.9L88,19.4c-0.7-0.7-1.4-1.3-2.2-1.9v43.8c0,2.8,2.3,5,5,5h5.7c0.8-5,5.2-8.8,10.4-8.8
		c5.8,0,10.6,4.8,10.6,10.6s-4.8,10.6-10.6,10.6c-5.2,0-9.6-3.8-10.4-8.8h-5.7c-4.7,0-8.6-3.8-8.6-8.6V15C72,9.2,58.8,10.6,50,19.4
		L11.5,57.9C1,68.4,1,85.3,11.5,95.8L50,134.3c1.2,1.2,2.6,2.3,4,3.3V92.8c0-3.9-3.2-7.1-7.1-7.1h-7.2c-0.8,5-5.2,8.8-10.4,8.8
		c-5.8,0-10.6-4.8-10.6-10.6s4.8-10.6,10.6-10.6c5.2,0,9.6,3.8,10.4,8.8h7.2c5.8,0,10.6,4.8,10.6,10.6v46.9c2.8,1.3,5.8,2.1,8.8,2.4
		V66.3c0-3.9-3.2-7.1-7.1-7.1h-7.7c-1.5,4.1-5.4,7.1-10,7.1c-5.8,0-10.6-4.8-10.6-10.6s4.8-10.6,10.6-10.6s10.6,4.8,10.6,10.6h7.1
		c5.8,0,10.6,4.8,10.6,10.6v75.9c3-0.1,6-0.7,8.8-1.8v-38.8c0-5.8,4.8-10.6,10.6-10.6h7.2c0.8-5,5.2-8.8,10.4-8.8
		c5.8,0,10.6,4.8,10.6,10.6c0,5.8-4.8,10.6-10.6,10.6c-5.2,0-9.6-3.8-10.4-8.8h-7.2c-3.9,0-7.1,3.2-7.1,7.1v37.1
		c2-1.2,4-2.6,5.7-4.4l38.5-38.5C137,85.3,137,68.4,126.5,57.9z"/>
	<path class="st3" d="M89.3,94.5h7.2c0.8,5,5.2,8.8,10.4,8.8c5.8,0,10.6-4.8,10.6-10.6c0-5.8-4.8-10.6-10.6-10.6
		c-5.2,0-9.6,3.8-10.4,8.8h-7.2c-5.8,0-10.6,4.8-10.6,10.6v38.8c1.2-0.5,2.4-1,3.5-1.7v-37.1C82.2,97.7,85.4,94.5,89.3,94.5z
		 M107,85.7c3.9,0,7.1,3.2,7.1,7.1c0,3.9-3.2,7.1-7.1,7.1c-3.9,0-7.1-3.2-7.1-7.1C99.9,88.8,103.1,85.7,107,85.7z"/>
	<path class="st3" d="M59.3,55.7h-7.1c0-5.8-4.8-10.6-10.6-10.6S31,49.8,31,55.7s4.8,10.6,10.6,10.6c4.6,0,8.5-3,10-7.1h7.7
		c3.9,0,7.1,3.2,7.1,7.1v75.8c1.2,0.1,2.4,0.1,3.5,0.1V66.3C69.9,60.4,65.1,55.7,59.3,55.7z M41.6,62.7c-3.9,0-7.1-3.2-7.1-7.1
		s3.2-7.1,7.1-7.1c3.9,0,7.1,3.2,7.1,7.1S45.5,62.7,41.6,62.7z"/>
	<path class="st3" d="M46.9,82.1h-7.2c-0.8-5-5.2-8.8-10.4-8.8c-5.8,0-10.6,4.8-10.6,10.6s4.8,10.6,10.6,10.6
		c5.2,0,9.6-3.8,10.4-8.8h7.2c3.9,0,7.1,3.2,7.1,7.1v44.9c1.1,0.8,2.3,1.4,3.5,2V92.8C57.5,86.9,52.8,82.1,46.9,82.1z M29.3,91
		c-3.9,0-7.1-3.2-7.1-7.1c0-3.9,3.2-7.1,7.1-7.1c3.9,0,7.1,3.2,7.1,7.1C36.3,87.8,33.2,91,29.3,91z"/>
	<path class="st3" d="M90.8,69.8h5.7c0.8,5,5.2,8.8,10.4,8.8c5.8,0,10.6-4.8,10.6-10.6s-4.8-10.6-10.6-10.6c-5.2,0-9.6,3.8-10.4,8.8
		h-5.7c-2.8,0-5-2.3-5-5V17.4c-1.1-0.9-2.3-1.7-3.5-2.4v46.2C82.3,65.9,86.1,69.8,90.8,69.8z M107,61c3.9,0,7.1,3.2,7.1,7.1
		s-3.2,7.1-7.1,7.1c-3.9,0-7.1-3.2-7.1-7.1S103.1,61,107,61z"/>
</g>
<g class="st4">
	<g>
		<path class="st3" d="M101.4,76.6c0,5-1.1,9.8-3.3,14.2c-0.6,1.2-0.1,2.7,1.1,3.3c0.4,0.2,0.7,0.3,1.1,0.3c0.9,0,1.8-0.5,2.2-1.4
			c2.5-5.1,3.8-10.6,3.8-16.4c0-3.3-0.4-6.5-1.3-9.6c-0.4-1.3-1.7-2.1-3.1-1.8c-1.3,0.4-2.1,1.7-1.8,3.1
			C101.1,71,101.4,73.8,101.4,76.6z"/>
		<path class="st3" d="M89.9,45.8c-6.1-4.1-13.2-6.2-20.6-6.2c-1.6,0-3.3,0.1-4.8,0.3c-1.4,0.2-2.3,1.4-2.1,2.8
			c0.2,1.4,1.4,2.3,2.8,2.1c1.4-0.2,2.8-0.3,4.2-0.3c6.4,0,12.5,1.9,17.8,5.4c0.4,0.3,0.9,0.4,1.4,0.4c0.8,0,1.6-0.4,2.1-1.1
			C91.4,48.1,91.1,46.5,89.9,45.8z"/>
		<path class="st3" d="M81.6,106.3c-3.9,1.6-8,2.4-12.3,2.4c0,0,0,0,0,0c-3.5,0-7-0.6-10.3-1.7c-1.3-0.4-2.7,0.3-3.2,1.6
			c-0.4,1.3,0.3,2.7,1.6,3.2c3.8,1.3,7.8,2,11.9,2c0,0,0,0,0,0c4.9,0,9.7-1,14.2-2.8c1.3-0.5,1.9-2,1.3-3.3
			C84.4,106.3,82.9,105.7,81.6,106.3z"/>
		<path class="st3" d="M37.2,76.6c0-7.8,2.8-15.3,8-21.2c0.9-1,0.8-2.6-0.2-3.5c-1-0.9-2.6-0.8-3.5,0.2c-5.9,6.8-9.2,15.4-9.2,24.4
			c0,6.5,1.7,13,5,18.6c0.5,0.8,1.3,1.2,2.2,1.2c0.4,0,0.9-0.1,1.2-0.3c1.2-0.7,1.6-2.2,0.9-3.4C38.7,87.8,37.2,82.3,37.2,76.6z"/>
		<path class="st3" d="M81,102c0.4-0.2,0.6-0.7,0.4-1.1c-0.2-0.4-0.7-0.6-1.1-0.4c-3.5,1.6-7.2,2.4-11,2.4
			C54.8,102.9,43,91.1,43,76.6c0-14.5,11.8-26.3,26.3-26.3c5.1,0,10,1.4,14.2,4.1c0.4,0.2,0.9,0.1,1.1-0.3c0.2-0.4,0.1-0.9-0.2-1.1
			c-4.5-2.9-9.7-4.4-15.1-4.4c-15.4,0-28,12.6-28,28c0,15.4,12.6,28,28,28C73.4,104.6,77.4,103.7,81,102z"/>
		<path class="st3" d="M88.2,80.9c-0.9-0.3-1.8,0.2-2.1,1.1c-2.3,7.3-9.1,12.2-16.8,12.2c-2.8,0-5.4-0.6-7.9-1.9
			c-0.8-0.4-1.8-0.1-2.2,0.7c-0.4,0.8-0.1,1.8,0.7,2.2c2.9,1.5,6.1,2.2,9.4,2.2c9.1,0,17.1-5.8,19.9-14.5
			C89.5,82.1,89,81.2,88.2,80.9z"/>
		<path class="st3" d="M72,59.2c0.9,0.1,1.8-0.5,1.9-1.4c0.1-0.9-0.5-1.8-1.4-1.9c-1.1-0.2-2.1-0.2-3.2-0.2
			c-11.5,0-20.9,9.4-20.9,20.9c0,0.9,0.7,1.7,1.7,1.7c0.9,0,1.7-0.7,1.7-1.7c0-9.7,7.9-17.6,17.6-17.6C70.2,59,71.1,59.1,72,59.2z"
			/>
		<circle class="st3" cx="69.3" cy="76.6" r="11.1"/>
		<path class="st3" d="M69.3,28.4c-26.6,0-48.2,21.6-48.2,48.2c0,26.6,21.6,48.2,48.2,48.2c26.6,0,48.2-21.6,48.2-48.2
			C117.6,50,95.9,28.4,69.3,28.4z M69.3,119.9c-23.9,0-43.3-19.4-43.3-43.3c0-23.9,19.4-43.3,43.3-43.3c23.9,0,43.3,19.4,43.3,43.3
			C112.6,100.5,93.2,119.9,69.3,119.9z"/>
	</g>
</g>
</svg>
